<?xml version="1.0" encoding="UTF-8"?>
<svg id="Layer_1" data-name="Layer 1" xmlns="http://www.w3.org/2000/svg" viewBox="0 0 442.6 169.51">
  <defs>
    <style>
      .cls-1 {
        fill: #005d8b;
      }
    </style>
  </defs>
  <path class="cls-1" d="M236.84,75.93c13.84-8.55,25.48-20.16,35.57-32.83,1.48-1.86,2.88-3.79,4.25-5.74-14.89-2.49-30.05-2.69-45.14-2.88-17.21-.22-34.47-.44-51.57,1.49,12.55,2.33,25.05,5.33,36.76,10.39,4.42,1.91,8.87,4.23,11.79,8.07,4.89,6.42,4.32,15.31,3.53,23.34-.02.19,4.42-1.6,4.82-1.84h0Z"/>
  <path class="cls-1" d="M213.46,81.48c.57,16.26,4.89,32.12,10.9,47.16.88,2.21,1.86,4.38,2.88,6.53,9.54-11.7,17.22-24.77,24.87-37.79,8.71-14.84,17.45-29.73,24.25-45.54-8.24,9.74-17.04,19.12-27.24,26.79-3.85,2.89-8.07,5.61-12.85,6.24-8,1.07-15.44-3.83-22.03-8.5-.16-.11-.81,4.63-.79,5.1h0Z"/>
  <path class="cls-1" d="M219.63,56.55c-14.52-7.34-30.5-11.19-46.58-13.18-2.36-.29-4.74-.48-7.11-.62,5.65,14,13.4,27.03,21.13,40,8.8,14.79,17.64,29.62,28.21,43.19-4.57-11.92-8.54-24.14-10.34-36.78-.68-4.77-1.02-9.78.72-14.26,2.92-7.52,10.8-11.69,18.06-15.21.17-.08-3.67-2.94-4.09-3.15h0Z"/>
</svg>