<svg xmlns="http://www.w3.org/2000/svg" fill="none" viewBox="0 0 48 48" id="Globe--Streamline-Plump">
  <desc>
    Globe Streamline Icon: https://streamlinehq.com
  </desc>
  <g id="globe--model-planet-earth-globe-world">
    <path id="Union" fill="#ffffff" fill-rule="evenodd" d="M34.397 8.3636c5.1817 6.7084 4.6962 16.3822 -1.4565 22.5349 -6.1526 6.1527 -15.8265 6.6382 -22.5349 1.4565 -1.0863 -0.8391 -2.5273 -1.3722 -3.7044 -0.6662 -0.7685 0.4609 -1.2733 1.0174 -1.605 1.5496 -0.7018 1.1264 -0.1234 2.498 0.8941 3.3499 2.6745 2.2392 5.7356 3.7804 8.9421 4.6233 -2.6825 0.8654 -5.3411 1.949 -6.5851 2.4727 -0.4473 0.1884 -0.7295 0.6255 -0.7295 1.1109 0 0.6757 0.5478 1.2235 1.2235 1.2235h23.8418c0.6757 0 1.2234 -0.5478 1.2234 -1.2235 0 -0.4854 -0.2821 -0.9225 -0.7294 -1.1109 -1.2326 -0.5188 -3.8536 -1.5873 -6.5105 -2.4485 3.8703 -1.0004 7.5324 -3.0163 10.5637 -6.0475 8.5552 -8.5552 9.0219 -22.136 1.4003 -31.2397 -0.8521 -1.0177 -2.224 -1.5961 -3.3505 -0.894 -0.5321 0.3316 -1.0885 0.8364 -1.5493 1.6047 -0.706 1.177 -0.1729 2.618 0.6662 3.7043Z" clip-rule="evenodd" stroke-width="1"></path>
    <path id="Ellipse 19" fill="#B9D4E1" d="M38.0131 18.9963c0 9.3971 -7.618 17.015 -17.0151 17.015S3.983 28.3934 3.983 18.9963c0 -9.3971 7.618 -17.015 17.015 -17.015s17.0151 7.6179 17.0151 17.015Z" stroke-width="1"></path>
    <path id="Intersect" fill="#ffffff" fill-rule="evenodd" d="M23.6779 2.1912c-0.873 -0.1382 -1.7681 -0.2099 -2.6799 -0.2099 -9.397 0 -17.015 7.6179 -17.015 17.015 0 3.0669 0.8115 5.9443 2.2313 8.4292 1.6011 0.0224 3.0068 -0.056 4.0012 -0.1383 1.0043 -0.0833 1.9713 -0.4994 2.5525 -1.3227 0.8359 -1.1843 1.3588 -2.5747 1.6562 -3.5644 0.2526 -0.84 0.1703 -1.729 -0.0702 -2.5726 -0.4237 -1.4862 -0.9842 -3.8893 -0.5874 -5.0852 0.515 -1.5528 4.1109 -1.9185 5.1076 -1.9905 0.1719 -0.0124 0.3411 -0.0273 0.5082 -0.0696 0.5699 -0.1441 2.0217 -0.6333 3.4949 -2.1109 0.6647 -0.6666 0.9884 -1.5847 1.0207 -2.5256 0.0461 -1.3444 0.0498 -3.4958 -0.2201 -5.8545Zm14.2128 18.856c-0.752 6.2601 -4.9031 11.4745 -10.5541 13.7443 -0.174 -1.4015 -0.2658 -2.6259 -0.3137 -3.4736 -0.0439 -0.7756 -0.4092 -1.5036 -1.0244 -1.978l-1.7559 -1.3541c-1.9478 -1.5021 -3.0216 -4.0405 -1.691 -6.1092 0.2857 -0.4441 0.6244 -0.8908 1.0252 -1.3163 0.9989 -1.0599 2.5208 -1.3314 3.9668 -1.1576 2.394 0.2878 6.3906 0.8301 10.3471 1.6446Z" clip-rule="evenodd" stroke-width="1"></path>
    <path id="Union_2" stroke="#005d8b" stroke-linejoin="round" d="M34.397 8.3636c5.1817 6.7084 4.6962 16.3822 -1.4565 22.5349 -6.1526 6.1527 -15.8265 6.6382 -22.5349 1.4565 -1.0863 -0.8391 -2.5273 -1.3722 -3.7044 -0.6662 -0.7685 0.4609 -1.2733 1.0174 -1.605 1.5496 -0.7018 1.1264 -0.1234 2.498 0.8941 3.3499 2.6745 2.2392 5.7356 3.7804 8.9421 4.6233 -2.6825 0.8654 -5.3411 1.949 -6.5851 2.4727 -0.4473 0.1884 -0.7295 0.6255 -0.7295 1.1109 0 0.6757 0.5478 1.2235 1.2235 1.2235h23.8418c0.6757 0 1.2234 -0.5478 1.2234 -1.2235 0 -0.4854 -0.2821 -0.9225 -0.7294 -1.1109 -1.2326 -0.5188 -3.8536 -1.5873 -6.5105 -2.4485 3.8703 -1.0004 7.5324 -3.0163 10.5637 -6.0475 8.5552 -8.5552 9.0219 -22.136 1.4003 -31.2397 -0.8521 -1.0177 -2.224 -1.5961 -3.3505 -0.894 -0.5321 0.3316 -1.0885 0.8364 -1.5493 1.6047 -0.706 1.177 -0.1729 2.618 0.6662 3.7043Z" stroke-width="1"></path>
    <path id="Ellipse 20" stroke="#005d8b" stroke-linejoin="round" d="M38.0131 18.9963c0 9.3971 -7.618 17.015 -17.0151 17.015S3.983 28.3934 3.983 18.9963c0 -9.3971 7.618 -17.015 17.015 -17.015s17.0151 7.6179 17.0151 17.015Z" stroke-width="1"></path>
    <path id="Intersect_2" stroke="#005d8b" stroke-linejoin="round" d="M23.6779 2.1912c-0.873 -0.1382 -1.7681 -0.2099 -2.6799 -0.2099 -9.397 0 -17.015 7.6179 -17.015 17.015 0 3.0669 0.8115 5.9443 2.2313 8.4292 1.6011 0.0224 3.0068 -0.056 4.0012 -0.1383 1.0043 -0.0833 1.9713 -0.4994 2.5525 -1.3227 0.8359 -1.1843 1.3588 -2.5747 1.6562 -3.5644 0.2526 -0.84 0.1703 -1.729 -0.0702 -2.5726 -0.4237 -1.4862 -0.9842 -3.8893 -0.5874 -5.0852 0.515 -1.5528 4.1109 -1.9185 5.1076 -1.9905 0.1719 -0.0124 0.3411 -0.0273 0.5082 -0.0696 0.5699 -0.1441 2.0217 -0.6333 3.4949 -2.1109 0.6647 -0.6666 0.9884 -1.5847 1.0207 -2.5256 0.0461 -1.3444 0.0498 -3.4958 -0.2201 -5.8545Z" stroke-width="1"></path>
    <path id="Intersect_3" stroke="#005d8b" stroke-linejoin="round" d="M37.8908 21.0472c-0.752 6.26 -4.9031 11.4745 -10.5541 13.7443 -0.174 -1.4015 -0.2658 -2.6259 -0.3137 -3.4736 -0.0439 -0.7757 -0.4092 -1.5037 -1.0244 -1.978l-1.7559 -1.3541c-1.9478 -1.5021 -3.0216 -4.0405 -1.691 -6.1092 0.2857 -0.4441 0.6244 -0.8909 1.0252 -1.3163 0.9989 -1.0599 2.5208 -1.3314 3.9668 -1.1576 2.394 0.2878 6.3906 0.83 10.3471 1.6446Z" stroke-width="1"></path>
  </g>
</svg>