<svg xmlns="http://www.w3.org/2000/svg" fill="none" viewBox="0 0 48 48">
  <g id="tag-label-more-option--tag-label-more-option-price-dots">
    <path id="Vector 33" fill="#B9D4E1" d="M31.8796 9.14834c1.4051 0.16562 2.7216 0.72725 3.7472 1.70186 1.8343 1.7431 4.8732 5.1502 7.2684 10.3927 0.781 1.7093 0.7849 3.6737 0.0133 5.3872 -2.3981 5.3251 -5.4462 8.7646 -7.2837 10.5183 -1.0235 0.9767 -2.3401 1.5385 -3.7452 1.7041 -2.2387 0.2639 -6.2899 0.6025 -12.341 0.6025 -4.772 0 -8.3391 -0.2106 -10.75592 -0.429 -2.36584 -0.2138 -4.1663 -1.9859 -4.37498 -4.3522 -0.21064 -2.3885 -0.40772 -5.9995 -0.4077 -11.1505 0.00002 -4.9708 0.18354 -8.3148 0.38567 -10.4904 0.20611 -2.2185 1.8987 -3.82361 4.11703 -4.0322 2.4179 -0.22736 6.0761 -0.4548 11.0359 -0.4548 6.0511 0 10.1023 0.33854 12.341 0.60244Z" stroke-width="1"></path>
    <path id="Ellipse 588" fill="#ffffff" d="M9.355 24a3.151 3.151 0 1 0 6.302 0 3.151 3.151 0 1 0 -6.302 0" stroke-width="1"></path>
    <path id="Ellipse 589" fill="#ffffff" d="M30.589 24a3.151 3.151 0 1 0 6.302 0 3.151 3.151 0 1 0 -6.302 0" stroke-width="1"></path>
    <path id="Ellipse 590" fill="#ffffff" d="M19.972 24a3.151 3.151 0 1 0 6.302 0 3.151 3.151 0 1 0 -6.302 0" stroke-width="1"></path>
    <path id="Vector 32" stroke="#005d8b" stroke-linejoin="round" d="M31.8796 9.14834c1.4051 0.16562 2.7216 0.72725 3.7472 1.70186 1.8343 1.7431 4.8732 5.1502 7.2684 10.3927 0.781 1.7093 0.7849 3.6737 0.0133 5.3872 -2.3981 5.3251 -5.4462 8.7646 -7.2837 10.5183 -1.0235 0.9767 -2.3401 1.5385 -3.7452 1.7041 -2.2387 0.2639 -6.2899 0.6025 -12.341 0.6025 -4.772 0 -8.3391 -0.2106 -10.75592 -0.429 -2.36584 -0.2138 -4.1663 -1.9859 -4.37498 -4.3522 -0.21064 -2.3885 -0.40772 -5.9995 -0.4077 -11.1505 0.00002 -4.9708 0.18354 -8.3148 0.38567 -10.4904 0.20611 -2.2185 1.8987 -3.82361 4.11703 -4.0322 2.4179 -0.22736 6.0761 -0.4548 11.0359 -0.4548 6.0511 0 10.1023 0.33854 12.341 0.60244Z" stroke-width="1"></path>
    <path id="Ellipse 585" stroke="#005d8b" d="M9.355 24a3.151 3.151 0 1 0 6.302 0 3.151 3.151 0 1 0 -6.302 0" stroke-width="1"></path>
    <path id="Ellipse 587" stroke="#005d8b" d="M30.589 24a3.151 3.151 0 1 0 6.302 0 3.151 3.151 0 1 0 -6.302 0" stroke-width="1"></path>
    <path id="Ellipse 586" stroke="#005d8b" d="M19.972 24a3.151 3.151 0 1 0 6.302 0 3.151 3.151 0 1 0 -6.302 0" stroke-width="1"></path>
  </g>
</svg>